# xmcd CD Database Entry
#
# Track frame offsets:
# 150
# 17512
# 35051
# 50443
# 67660
# 98088
# 122812
# 150767
# 169262
# 187373
# 205932
# 229929
# 250190
# 277348
# 311793
#
# Disc length: 4327 seconds
#
# Revision: 1
# Processed by: cddbd v1.4PL0 Copyright (c) Steve Scherf et al.
# Submitted via: tcd 2.0b
#
DISCID=d210e50f
DTITLE=Hillsongs - Touching Heaven Changing Earth
DYEAR=1900
DGENRE=
TTITLE0=1. sáv
TTITLE1=2. sáv
TTITLE2=3. sáv
TTITLE3=4. sáv
TTITLE4=5. sáv
TTITLE5=6. sáv
TTITLE6=7. sáv
TTITLE7=8. sáv
TTITLE8=9. sáv
TTITLE9=10. sáv
TTITLE10=11. sáv
TTITLE11=12. sáv
TTITLE12=13. sáv
TTITLE13=14. sáv
TTITLE14=15. sáv
EXTD=
EXTT0=
EXTT1=
EXTT2=
EXTT3=
EXTT4=
EXTT5=
EXTT6=
EXTT7=
EXTT8=
EXTT9=
EXTT10=
EXTT11=
EXTT12=
EXTT13=
EXTT14=
PLAYORDER=
